# xmcd
#
# Track frame offsets:
#	150
#	15660
#	29462
#	48414
#	65088
#	79627
#	95028
#	107782
#	120791
#	137545
#	152952
#	167342
#	183200
#	200049
#	213098
#	227049
#	241486
#	254320
#	267737
#	280645
#	292556
#
# Disc length: 4063 seconds
#
# Revision: 1
# Processed by: cddbd v1.5.2PL0 Copyright (c) Steve Scherf et al.
# Submitted via: dBpowerAMP V4.0
#
DISCID=1f0fdd15
DTITLE=Various Artist - Hott Country Volume 278 Can
DYEAR=2019
DGENRE=Country
TTITLE0=Blake Shelton - God's Country
TTITLE1=Dean Brody - Whiskey In A Teacup
TTITLE2=Brad Paisley - My Miracle
TTITLE3=Scotty McCreery - In Between
TTITLE4=Reklaws, The  - I Do Too
TTITLE5=Dustin Lynch - Ridin' Roads
TTITLE6=Thomas Rhett - Look What God Gave Her
TTITLE7=Hunter Hayes - Heartbreak
TTITLE8=Tenille Townes - White Horse
TTITLE9=Rachel Wammack - Enough
TTITLE10=Abby Anderson - Good Lord
TTITLE11=Caylee Hammack - Family Tree
TTITLE12=Jennifer Nettles - I Can Do Hard Things
TTITLE13=Filmore - Slower
TTITLE14=King Calaway - World For Two
TTITLE15=George Canyon - Out Of This Town
TTITLE16=Smithfield - Our World
TTITLE17=Shane Owens - Love To Try Them On
TTITLE18=Abrams, The  - Sounds Good To Me
TTITLE19=Amy Jack - If Not For Friends
TTITLE20=Arlene Quinn - Jackpot
EXTD=
EXTT0=
EXTT1=
EXTT2=
EXTT3=
EXTT4=
EXTT5=
EXTT6=
EXTT7=
EXTT8=
EXTT9=
EXTT10=
EXTT11=
EXTT12=
EXTT13=
EXTT14=
EXTT15=
EXTT16=
EXTT17=
EXTT18=
EXTT19=
EXTT20=
PLAYORDER=
